<?xml version="1.0" standalone="no"?>
<!DOCTYPE svg PUBLIC "-//W3C//DTD SVG 20010904//EN"
 "http://www.w3.org/TR/2001/REC-SVG-20010904/DTD/svg10.dtd">
<svg version="1.0" xmlns="http://www.w3.org/2000/svg"
 width="512.000000pt" height="512.000000pt" viewBox="0 0 512.000000 512.000000"
 preserveAspectRatio="xMidYMid meet">
<metadata>
Created by potrace 1.14, written by Peter Selinger 2001-2017
</metadata>
<g transform="translate(0.000000,512.000000) scale(0.100000,-0.100000)"
fill="#000000" stroke="none">
<path d="M2882 5043 c-155 -176 -233 -301 -273 -441 -17 -61 -21 -201 -6 -258
14 -54 65 -168 120 -268 72 -133 121 -239 131 -286 4 -19 10 -48 14 -65 3 -16
6 -67 5 -111 0 -94 -27 -192 -79 -296 -51 -101 -50 -101 51 17 60 69 70 82
122 160 47 70 84 180 87 259 5 94 -23 181 -101 324 -66 119 -111 211 -125 257
-39 121 -47 273 -22 385 8 36 17 76 20 90 6 30 73 201 84 215 10 13 40 85 36
85 -2 0 -31 -30 -64 -67z"/>
<path d="M2233 4468 c-168 -244 -207 -420 -132 -593 7 -16 13 -34 13 -39 1 -6
9 -19 18 -30 37 -44 146 -204 176 -256 53 -97 77 -228 58 -320 -9 -39 -32
-123 -41 -142 -4 -10 -3 -18 3 -18 11 0 99 143 129 210 45 103 54 220 21 296
-6 16 -58 99 -114 184 -125 190 -146 246 -150 390 -3 112 8 183 49 313 14 42
24 77 22 77 -1 0 -25 -33 -52 -72z"/>
<path d="M2338 2915 c-2 -1 -73 -5 -158 -9 -85 -4 -168 -9 -185 -11 -16 -2
-61 -6 -100 -9 -191 -17 -389 -49 -558 -92 -225 -57 -363 -135 -403 -230 -10
-23 -12 -68 -8 -166 2 -74 6 -144 9 -155 4 -23 14 -91 20 -138 23 -187 149
-536 245 -680 15 -22 29 -44 31 -50 5 -13 82 -129 90 -135 3 -3 30 -34 60 -70
107 -129 252 -259 388 -349 48 -32 105 -76 126 -100 61 -68 174 -123 305 -150
107 -23 158 -26 380 -26 196 1 238 4 330 24 137 30 231 74 300 141 30 29 87
74 125 100 109 73 217 162 312 259 88 88 88 88 180 114 233 66 492 176 663
282 102 64 238 189 286 265 67 107 88 244 50 335 -9 21 -14 45 -11 52 2 8 1
12 -3 9 -5 -3 -24 15 -43 39 -34 43 -128 111 -184 133 -54 22 -159 39 -220 37
-65 -3 -132 -12 -145 -20 -18 -11 -25 25 -25 131 0 107 -1 112 -30 154 -16 24
-50 56 -75 71 -25 15 -52 33 -60 41 -8 7 -19 13 -25 13 -5 0 -37 11 -70 24
-33 12 -67 24 -76 26 -9 2 -52 13 -95 24 -84 21 -210 46 -284 55 -25 3 -54 8
-65 10 -11 2 -50 7 -87 10 -37 4 -77 9 -90 11 -22 3 -99 9 -269 21 -74 5 -626
13 -631 9z m647 -99 c55 -4 118 -8 140 -11 22 -2 74 -7 115 -10 41 -3 102 -10
135 -15 33 -5 78 -12 100 -15 22 -3 51 -7 65 -10 14 -3 52 -10 85 -16 190 -34
369 -100 438 -161 54 -48 58 -85 15 -133 -29 -34 -141 -97 -197 -111 -9 -2
-41 -11 -71 -20 -136 -39 -296 -68 -550 -99 -296 -36 -1015 -41 -1303 -10 -17
2 -59 6 -92 10 -71 7 -99 11 -232 30 -61 9 -141 25 -250 51 -234 55 -373 134
-373 211 0 28 57 87 110 116 61 33 190 77 270 92 8 2 33 8 55 13 22 6 54 13
70 15 17 3 62 10 100 17 127 20 157 24 280 36 39 3 78 8 87 9 9 2 79 7 155 10
76 4 139 8 141 10 5 4 611 -3 707 -9z m1550 -667 c124 -58 167 -195 103 -328
-20 -41 -108 -139 -164 -182 -51 -40 -236 -130 -274 -134 -3 0 -9 -3 -15 -7
-12 -7 -112 -36 -170 -48 -22 -5 -48 -12 -57 -15 -26 -10 -23 17 7 72 55 98
145 334 169 444 9 43 153 184 206 202 65 23 142 21 195 -4z"/>
<path d="M834 1665 c-226 -75 -403 -172 -506 -276 -120 -122 -151 -262 -88
-395 28 -59 146 -178 215 -218 139 -80 244 -150 238 -159 -3 -6 -1 -7 6 -3 7
5 39 -8 74 -29 79 -48 412 -210 542 -265 55 -23 119 -52 142 -65 23 -13 59
-29 80 -35 21 -7 43 -16 48 -20 21 -16 302 -107 390 -125 58 -13 124 -26 159
-31 21 -3 48 -7 59 -10 60 -11 213 -19 377 -19 217 0 311 8 480 41 41 9 87 17
102 20 157 29 454 146 893 355 39 18 75 33 80 33 6 1 12 4 15 7 3 3 50 30 105
59 55 29 151 84 213 122 62 37 115 68 118 68 3 0 10 5 17 10 7 6 40 28 74 50
299 189 327 466 68 661 -57 43 -70 43 -108 1 -18 -20 -17 -21 35 -60 381 -282
61 -610 -772 -791 -80 -18 -161 -34 -180 -37 -19 -3 -73 -11 -120 -19 -47 -8
-112 -17 -145 -20 -33 -4 -71 -9 -85 -11 -14 -2 -59 -6 -100 -10 -41 -3 -86
-8 -100 -10 -157 -25 -933 -25 -1195 0 -22 3 -69 7 -105 10 -93 8 -141 14
-265 32 -609 89 -1036 239 -1209 424 -209 223 -33 454 478 630 66 22 122 42
124 45 9 9 -23 75 -38 75 -8 -1 -60 -16 -116 -35z"/>
</g>
</svg>
